<?xml version="1.0" encoding="UTF-8"?>
<svg version="1.1" xmlns="http://www.w3.org/2000/svg" width="1517" height="316">
<path d="M0 0 C3.55963644 3.10461258 6.97300094 6.34614329 10.37011719 9.62695312 C11.1603125 10.36558594 11.95050781 11.10421875 12.76464844 11.86523438 C37.41115374 35.47580951 54.25877523 71.887847 55.49414062 106.05737305 C56.15561795 138.97811954 56.15561795 138.97811954 52.37011719 153.62695312 C52.07210205 154.80523682 52.07210205 154.80523682 51.76806641 156.00732422 C44.4920149 183.98333351 30.96655951 206.52584796 11.37011719 227.62695312 C10.8196875 228.23152344 10.26925781 228.83609375 9.70214844 229.45898438 C-16.74944089 257.34745016 -55.36067307 269.45464876 -92.64941406 271.81835938 C-95.33220035 271.88173228 -97.95058604 271.79134862 -100.62988281 271.62695312 C-101.64840332 271.56531982 -101.64840332 271.56531982 -102.6875 271.50244141 C-133.03103232 269.49450787 -162.70354996 259.8588789 -186.62988281 240.62695312 C-187.52707031 239.93085938 -188.42425781 239.23476563 -189.34863281 238.51757812 C-220.13892251 214.12751718 -240.77214064 177.28890458 -245.42919922 138.17797852 C-245.91121217 132.05078463 -245.87407701 125.89500634 -245.87988281 119.75195312 C-245.88139343 118.64596771 -245.88139343 118.64596771 -245.88293457 117.51763916 C-245.87254977 106.2797633 -245.2525213 95.58299702 -242.62988281 84.62695312 C-242.36304688 83.39332031 -242.09621094 82.1596875 -241.82128906 80.88867188 C-235.49823503 54.27564002 -221.24257116 31.3306161 -202.62988281 11.62695312 C-201.93507813 10.87929688 -201.24027344 10.13164063 -200.52441406 9.36132812 C-148.8438139 -44.48439736 -56.66206685 -47.73329298 0 0 Z " fill="#FEFEFE" transform="translate(583.6298828125,38.373046875)"/>
<path d="M0 0 C19.14 0 38.28 0 58 0 C66.95452243 11.75281069 75.8402071 23.47933009 84.5703125 35.38671875 C87.96804155 39.98712371 91.47100499 44.49989312 95 49 C100.33510362 55.803222 105.50640313 62.7087983 110.61157227 69.68579102 C115.63597484 76.53953068 120.77341084 83.30240007 125.9375 90.05126953 C131.44613878 97.25518384 136.89143151 104.50498094 142.30444336 111.78100586 C142.89233643 112.56870361 143.48022949 113.35640137 144.0859375 114.16796875 C144.8601001 115.20860474 144.8601001 115.20860474 145.64990234 116.27026367 C147.03145408 118.11301408 147.03145408 118.11301408 149 120 C149.35078613 119.52393311 149.70157227 119.04786621 150.06298828 118.55737305 C166.5546875 96.17578125 166.5546875 96.17578125 168.28100586 93.83300781 C169.43557633 92.26603218 170.59003434 90.69897368 171.74438477 89.13183594 C174.67203655 85.15757414 177.60163392 81.18477474 180.53515625 77.21484375 C186.22964599 69.50460543 191.89882943 61.77836411 197.5 54 C203.66816563 45.43424798 209.92151938 36.93315197 216.19433594 28.44384766 C219.31939357 24.21428751 222.44124051 19.98236339 225.5625 15.75 C226.41992798 14.5889978 226.41992798 14.5889978 227.29467773 13.40454102 C227.83809814 12.66776123 228.38151855 11.93098145 228.94140625 11.171875 C229.41263916 10.5334668 229.88387207 9.89505859 230.36938477 9.23730469 C232.60181214 6.17427662 234.7969713 3.08424018 237 0 C256.14 0 275.28 0 295 0 C295 93.06 295 186.12 295 282 C275.2 282 255.4 282 235 282 C234.67 223.59 234.34 165.18 234 105 C227.04876969 113.45899784 227.04876969 113.45899784 220.3125 122.0625 C219.47053141 123.16442891 218.62805301 124.26596841 217.78515625 125.3671875 C217.34059082 125.94823242 216.89602539 126.52927734 216.43798828 127.12792969 C213.72472083 130.6602446 210.98629831 134.17301612 208.25 137.6875 C207.66033447 138.44514648 207.07066895 139.20279297 206.46313477 139.98339844 C204.03188047 143.10680958 201.5999021 146.22965663 199.16796875 149.35253906 C190.55907251 160.40698713 190.55907251 160.40698713 182 171.5 C179.22819462 175.10926382 176.44982082 178.71311352 173.66015625 182.30859375 C173.07194092 183.06672363 172.48372559 183.82485352 171.87768555 184.60595703 C170.6733445 186.15289139 169.46520333 187.69687514 168.25317383 189.23779297 C165.40900993 192.85876502 162.62352136 196.49353978 159.9765625 200.26171875 C159.503396 200.91599854 159.03022949 201.57027832 158.54272461 202.24438477 C157.66790474 203.45835295 156.81517237 204.68869324 155.99047852 205.93725586 C154.28685013 208.26051177 152.69063872 209.79086463 149.90942383 210.63305664 C146.40168237 210.96996254 144.02417559 210.7949073 141.19067383 208.59570312 C139.39269161 206.55065561 137.85221473 204.43347418 136.3125 202.1875 C135.72001465 201.37579346 135.1275293 200.56408691 134.51708984 199.7277832 C133.27307127 198.01877696 132.04145973 196.30067739 130.82177734 194.57421875 C128.54011235 191.3501668 126.19239959 188.17815809 123.84057617 185.00512695 C122.09632401 182.64876069 120.36444852 180.28361668 118.6328125 177.91796875 C114.81857593 172.72989874 110.91445849 167.61265667 107 162.5 C101.35079836 155.1195041 95.79350117 147.68019659 90.30224609 140.18164062 C85.18324124 133.2087259 79.94808874 126.32735551 74.6796875 119.46679688 C70.0132193 113.37821285 65.51613458 107.20968505 61 101 C60.67 160.73 60.34 220.46 60 282 C40.2 282 20.4 282 0 282 C0 188.94 0 95.88 0 0 Z " fill="#FFFFFF" transform="translate(0,13)"/>
<path d="M0 0 C21.45 0 42.9 0 65 0 C84.73072541 61.1104412 84.73072541 61.1104412 93.125 87.375 C105.34468042 125.60644805 117.61809135 163.82075806 130 202 C132.83427741 193.20863753 135.66754596 184.41695009 138.5 175.625 C138.7147699 174.95835327 138.92953979 174.29170654 139.15081787 173.6048584 C145.44184206 154.07653202 151.71452219 134.54247897 157.95880127 114.99914551 C161.91215078 102.62702837 165.87935584 90.25948403 169.8671875 77.8984375 C170.2850249 76.60312427 170.7028614 75.30781075 171.12069702 74.01249695 C171.95692668 71.42026026 172.79318302 68.82803218 173.62945557 66.23580933 C173.83547646 65.59719341 174.04149734 64.9585775 174.25376129 64.30060959 C174.66642689 63.02149928 175.07912098 61.74239816 175.49184418 60.46330643 C180.85185179 43.85114129 186.18328995 27.23190004 191.32373047 10.55029297 C191.67322754 9.41865723 192.02272461 8.28702148 192.3828125 7.12109375 C192.67559082 6.1664624 192.96836914 5.21183105 193.27001953 4.22827148 C194 2 194 2 195 0 C216.45 0 237.9 0 260 0 C257.74982315 10.12579585 257.74982315 10.12579585 256.35864258 14.20458984 C256.04620605 15.12802689 255.73376953 16.05146393 255.41186523 17.00288391 C255.07614502 17.9790416 254.7404248 18.95519928 254.39453125 19.9609375 C254.03907227 21.00634201 253.68361328 22.05174652 253.31738281 23.12882996 C252.15389577 26.54588105 250.98334933 29.96046529 249.8125 33.375 C248.98956739 35.7862882 248.16689827 38.19766635 247.34448242 40.60913086 C242.27563467 55.45174158 237.13040836 70.26662052 231.93374634 85.06488037 C225.38052719 103.74069505 219.06504665 122.49599993 212.74120331 141.25032806 C206.45298414 159.89786902 200.12698554 178.52837623 193.59124756 197.09100342 C189.38620142 209.04150346 185.28378466 221.02469777 181.23046875 233.02734375 C180.85306581 234.14459744 180.85306581 234.14459744 180.46803856 235.28442192 C177.93171686 242.79413111 175.39952084 250.30521032 172.87600803 257.81923389 C171.93603028 260.61653546 170.99382302 263.4130829 170.05118752 266.20948982 C169.60755375 267.52757917 169.16502724 268.84604173 168.72363853 270.16488457 C168.11674457 271.97816096 167.50598933 273.79014365 166.89501953 275.60205078 C166.55165558 276.62485138 166.20829163 277.64765198 165.85452271 278.70144653 C165 281 165 281 164 282 C161.88318683 282.0942174 159.76319242 282.11742761 157.64428711 282.11352539 C156.98089828 282.11367142 156.31750946 282.11381744 155.63401794 282.1139679 C153.43176044 282.11326881 151.22958655 282.10547665 149.02734375 282.09765625 C147.50419664 282.09579206 145.98104893 282.09436816 144.457901 282.09336853 C140.44162349 282.08954346 136.42538192 282.07971328 132.40911865 282.06866455 C128.31376634 282.05845019 124.21840824 282.05387086 120.12304688 282.04882812 C112.08201472 282.038091 104.04101183 282.02101472 96 282 C92.44907142 274.43348754 89.74605219 266.68005252 87.10546875 258.7578125 C86.63738429 257.3647112 86.16885257 255.97176011 85.6999054 254.57894897 C84.70717738 251.62833842 83.71685567 248.67693673 82.72851562 245.72485352 C80.12540023 237.95095207 77.50568887 230.1826337 74.88671875 222.4140625 C74.62766125 221.6452047 74.36860374 220.87634689 74.10169601 220.08419037 C69.98220132 207.86054711 65.78599954 195.66635859 61.5 183.5 C55.00711809 165.05364184 48.74826992 146.53021543 42.5 128 C36.10427069 109.03296667 29.69039867 90.07504304 23.0625 71.1875 C18.05129361 56.89427402 13.06943128 42.5915453 8.16036987 28.2628479 C7.43481297 26.14781171 6.70708829 24.03351779 5.9770813 21.92001343 C4.96970286 19.00204638 3.97016216 16.08151044 2.97265625 13.16015625 C2.67037109 12.28946503 2.36808594 11.4187738 2.05664062 10.521698 C1.78408447 9.7179776 1.51152832 8.9142572 1.23071289 8.08618164 C0.99171768 7.38981094 0.75272247 6.69344025 0.50648499 5.97596741 C0 4 0 4 0 0 Z " fill="#FFFFFF" transform="translate(645,13)"/>
<path d="M0 0 C16 0 16 0 20.1328125 3.671875 C21.18656398 5.33008722 22.18202337 7.02638316 23.125 8.75 C24.27455585 10.60378678 25.42564007 12.45662653 26.578125 14.30859375 C27.42600586 15.73534424 27.42600586 15.73534424 28.29101562 17.19091797 C30.94226611 21.54881627 33.90958168 25.66509689 36.875 29.8125 C38.04108874 31.47384005 39.20512013 33.13662587 40.3671875 34.80078125 C40.95725586 35.64463379 41.54732422 36.48848633 42.15527344 37.35791016 C46.12351001 43.04137445 50.07767344 48.7346368 54.03417969 54.42626953 C60.09800618 63.14686679 66.18658311 71.84996444 72.28222656 80.54833984 C75.77500481 85.53334256 79.2646291 90.52055381 82.75488281 95.50732422 C85.64548192 99.63709659 88.53676689 103.7663847 91.4296875 107.89453125 C98.31728062 117.72500507 105.18294378 127.57042296 112.03417969 137.42626953 C118.09800618 146.14686679 124.18658311 154.84996444 130.28222656 163.54833984 C133.77500481 168.53334256 137.2646291 173.52055381 140.75488281 178.50732422 C143.64548192 182.63709659 146.53676689 186.7663847 149.4296875 190.89453125 C156.44190286 200.90288404 163.43408629 210.92492027 170.40771484 220.96020508 C171.03500488 221.86279053 171.66229492 222.76537598 172.30859375 223.6953125 C173.12541626 224.8711792 173.12541626 224.8711792 173.95874023 226.07080078 C176.96546596 230.38543961 179.98419278 234.69170397 183 239 C183.33 160.13 183.66 81.26 184 0 C190.6 0 197.2 0 204 0 C204 92.73 204 185.46 204 281 C187 281 187 281 183.20703125 277.984375 C181.95166016 275.97338867 181.95166016 275.97338867 180.8125 273.75 C179.86020221 272.17709429 178.90568167 270.60553268 177.94921875 269.03515625 C177.47274902 268.20773926 176.9962793 267.38032227 176.50537109 266.52783203 C173.95505924 262.24532653 171.02149805 258.24004423 168.125 254.1875 C166.93556287 252.49093978 165.74807345 250.79301245 164.5625 249.09375 C162.23087305 245.75921801 159.8976243 242.42583376 157.5625 239.09375 C150.67713052 229.26744773 143.81437756 219.42572364 136.96582031 209.57373047 C130.90199382 200.85313321 124.81341689 192.15003556 118.71777344 183.45166016 C115.22499519 178.46665744 111.7353709 173.47944619 108.24511719 168.49267578 C105.35451808 164.36290341 102.46323311 160.2336153 99.5703125 156.10546875 C92.68271938 146.27499493 85.81705622 136.42957704 78.96582031 126.57373047 C72.90199382 117.85313321 66.81341689 109.15003556 60.71777344 100.45166016 C58.39525804 97.1368933 56.07427632 93.82105413 53.75341797 90.50512695 C52.58850972 88.84081012 51.42347157 87.17658421 50.25830078 85.51245117 C47.28990477 81.27277656 44.32320258 77.03193225 41.359375 72.7890625 C40.75480469 71.92410156 40.15023438 71.05914062 39.52734375 70.16796875 C38.39915633 68.55379291 37.27149026 66.93925246 36.14453125 65.32421875 C31.14804785 58.17765937 26.06940138 51.09716194 21 44 C20.67 122.21 20.34 200.42 20 281 C13.4 281 6.8 281 0 281 C0 188.27 0 95.54 0 0 Z " fill="#FFFFFF" transform="translate(1039,13)"/>
<path d="M0 0 C6.6 0 13.2 0 20 0 C20.33 52.47 20.66 104.94 21 159 C26.92284057 152.53871938 32.83470465 146.08418625 38.6875 139.5625 C41.27615036 136.69399555 43.88589108 133.84527019 46.5 131 C51.36943045 125.69878077 56.19423024 120.35895189 61 115 C66.27083016 109.12245558 71.57231672 103.27500173 76.91357422 97.46142578 C80.5298002 93.52207454 84.10882405 89.55073735 87.6796875 85.5703125 C90.31079783 82.65571553 92.96652475 79.76460776 95.625 76.875 C98.6022264 73.63786909 101.55952966 70.38862144 104.4375 67.0625 C108.01802312 62.93244815 111.73579762 58.9339593 115.45019531 54.92480469 C120.01596642 49.99354346 124.51744662 45.00702032 129 40 C133.80527352 34.64060484 138.63072328 29.30135118 143.5 24 C151.93239585 15.36141054 151.93239585 15.36141054 159.34985352 5.94140625 C161.88526286 2.39065482 163.62536808 0.29413228 167.99853516 -0.64160156 C171.5103485 -0.78701616 174.92862112 -0.69908533 178.4375 -0.5 C179.64599609 -0.46390625 180.85449219 -0.4278125 182.09960938 -0.390625 C185.06970002 -0.29670909 188.03318135 -0.1655129 191 0 C189.57607889 3.78791796 188.28315009 6.04028233 185.3125 8.8125 C182.64890606 11.37585116 180.09919593 13.94800545 177.6875 16.75 C174.7306288 20.18508954 171.69442837 23.54061154 168.625 26.875 C163.71180616 32.21611987 158.84620499 37.59795788 154 43 C152.50028872 44.66692647 151.00028679 46.33359149 149.5 48 C148.38625 49.2375 148.38625 49.2375 147.25 50.5 C131.5 68 131.5 68 129.2421875 70.5078125 C127.76707382 72.14739879 126.29308348 73.78799655 124.8203125 75.4296875 C120.69902232 80.0203061 116.55126212 84.58447107 112.375 89.125 C108.82120015 92.98962075 105.32332985 96.89412025 101.88671875 100.86328125 C98.94745222 104.19201581 95.928655 107.44788872 92.90625 110.70117188 C90.13276496 113.70245036 87.51448944 116.77886247 85 120 C86.64109799 125.3044522 90.0114403 129.32032553 93.3125 133.6875 C94.59063608 135.39914821 95.86796157 137.11140197 97.14453125 138.82421875 C97.79115723 139.68966309 98.4377832 140.55510742 99.10400391 141.44677734 C101.94257013 145.26930188 104.72277044 149.13280324 107.5 153 C111.95947002 159.19706702 116.4624987 165.35984923 121 171.5 C126.08205078 178.3770356 131.11002797 185.29033083 136.10546875 192.23046875 C140.03392016 197.68083838 144.00705268 203.09674016 148 208.5 C153.08205078 215.3770356 158.11002797 222.29033083 163.10546875 229.23046875 C167.03392064 234.68083905 171.0070995 240.09670489 175 245.5 C181.25904647 253.97115261 187.45270326 262.48817646 193.59423828 271.04492188 C194.55219166 272.37720576 195.51428191 273.70652256 196.47998047 275.03320312 C200 279.89129958 200 279.89129958 200 281 C179.46943417 283.98648396 179.46943417 283.98648396 172.66748047 279.44140625 C168.4479123 275.11104672 165.52732409 269.92739354 162.57714844 264.68554688 C160.03220053 260.35204425 156.9783864 256.43048236 153.9375 252.4375 C152.76756649 250.85657902 151.60088215 249.27324825 150.4375 247.6875 C149.86644531 246.91019531 149.29539062 246.13289062 148.70703125 245.33203125 C143.22560617 237.84367708 137.81626116 230.3028145 132.39550781 222.77050781 C126.3076125 214.31406964 120.19131259 205.88111091 114 197.5 C107.8130334 189.12477222 101.70114992 180.69767662 95.61767578 172.24707031 C91.27885753 166.22013352 86.93348723 160.1979633 82.57861328 154.18261719 C81.51565382 152.71295162 80.45415763 151.24222674 79.39404297 149.77050781 C77.87079284 147.65662883 76.34229787 145.54664318 74.8125 143.4375 C74.35472168 142.79981689 73.89694336 142.16213379 73.42529297 141.50512695 C71.16842086 138.25074172 71.16842086 138.25074172 68 136 C67.73662842 136.58555664 67.47325684 137.17111328 67.2019043 137.77441406 C65.94677217 140.09856286 64.59314046 141.70607738 62.76953125 143.609375 C62.13080078 144.28226563 61.49207031 144.95515625 60.83398438 145.6484375 C60.16689453 146.34195313 59.49980469 147.03546875 58.8125 147.75 C54.31222089 152.46073992 49.89537313 157.21060107 45.62768555 162.13378906 C43.30025327 164.80228948 40.90291998 167.39919249 38.5 170 C34.26106018 174.6046409 30.06220709 179.2380826 26 184 C25.15492386 184.84313751 24.30984772 185.68627502 23.43916321 186.55496216 C20.19508379 190.48072044 20.2892828 194.10286897 20.34057617 199.03466797 C20.32485062 200.36734459 20.32485062 200.36734459 20.30880737 201.72694397 C20.28012016 204.64904983 20.28634148 207.5699664 20.29296875 210.4921875 C20.27984989 212.52386963 20.26454509 214.55553873 20.24714661 216.58718872 C20.20730591 221.92357263 20.19710672 227.25961528 20.19311523 232.59613037 C20.18378211 238.045963 20.14636738 243.49559525 20.11132812 248.9453125 C20.04676133 259.63024618 20.01611012 270.31488326 20 281 C13.4 281 6.8 281 0 281 C0 188.27 0 95.54 0 0 Z " fill="#FFFFFF" transform="translate(1317,13)"/>
<path d="M0 0 C0.66 0 1.32 0 2 0 C5.44032402 4.93611707 7.54379399 10.49841614 9.375 16.1875 C11.88796845 23.89655424 15.18574836 31.29069229 18.625 38.625 C20.60530543 42.90741049 22.05064637 47.14471772 23.2265625 51.7109375 C24.13845479 54.40977024 25.52968247 56.5629487 27 59 C27.83380246 61.00381559 28.62317196 63.02650931 29.375 65.0625 C31.77371875 71.43993187 34.35215579 77.72271202 37 84 C39.7493947 90.56010589 42.46989891 97.12765089 45.0859375 103.7421875 C45.93094077 105.82941779 46.82999404 107.88253341 47.75 109.9375 C49 113 49 113 49 116 C48.45287354 116.1451001 47.90574707 116.2902002 47.34204102 116.43969727 C36.69105295 119.29456689 26.34703072 122.35897545 16.24438477 126.81469727 C13.31082973 128.10214747 11.24443106 129 8 129 C8 129.66 8 130.32 8 131 C7.39849121 131.22494141 6.79698242 131.44988281 6.17724609 131.68164062 C-0.28930083 134.17386454 -6.31901857 137.14087862 -12.375 140.5 C-13.3239917 141.02335938 -14.2729834 141.54671875 -15.25073242 142.0859375 C-31.11571825 150.89498899 -46.37204594 160.25293171 -61 171 C-61.56686523 171.41378906 -62.13373047 171.82757813 -62.71777344 172.25390625 C-74.13234626 180.6030084 -84.8708573 189.69337486 -95.51953125 198.984375 C-98.64201219 201.7031991 -101.80940282 204.3615276 -105 207 C-104.125 202.25 -104.125 202.25 -103 200 C-102.34 200 -101.68 200 -101 200 C-100.855625 199.236875 -100.71125 198.47375 -100.5625 197.6875 C-100 195 -100 195 -99 192 C-98.34 192 -97.68 192 -97 192 C-96.91105469 191.33097656 -96.82210938 190.66195312 -96.73046875 189.97265625 C-95.7960796 186.17014213 -94.10373352 182.89107755 -92.3125 179.4375 C-91.58978362 178.01956189 -90.86712803 176.60159281 -90.14453125 175.18359375 C-89.6043335 174.13147705 -89.6043335 174.13147705 -89.05322266 173.05810547 C-87.51358924 170.04950332 -86.00711543 167.02502166 -84.5 164 C-83.66666667 162.33333333 -82.83333333 160.66666667 -82 159 C-81.34 159 -80.68 159 -80 159 C-79.01 155.7 -78.02 152.4 -77 149 C-76.34 149 -75.68 149 -75 149 C-74.88398438 148.278125 -74.76796875 147.55625 -74.6484375 146.8125 C-73.97827021 143.90575029 -72.98925266 141.64582334 -71.625 139 C-71.20476562 138.175 -70.78453125 137.35 -70.3515625 136.5 C-69.45744635 134.84614353 -68.51859627 133.21563285 -67.53515625 131.61328125 C-65.73895272 128.55562181 -64.27969052 125.41531915 -62.8125 122.1875 C-62.28269531 121.02605469 -61.75289063 119.86460937 -61.20703125 118.66796875 C-60.80871094 117.78753906 -60.41039062 116.90710938 -60 116 C-59.34 116 -58.68 116 -58 116 C-57.62101562 114.50533203 -57.62101562 114.50533203 -57.234375 112.98046875 C-56.04451243 108.82534339 -54.23595233 105.1379923 -52.25 101.3125 C-51.53639743 99.91279147 -50.82285643 98.51305154 -50.109375 97.11328125 C-49.75552734 96.42443848 -49.40167969 95.7355957 -49.03710938 95.02587891 C-47.50250442 92.0281972 -46.00176886 89.01426464 -44.5 86 C-43.66666667 84.33333333 -42.83333333 82.66666667 -42 81 C-41.34 81 -40.68 81 -40 81 C-39.67 79.02 -39.34 77.04 -39 75 C-38.34 75 -37.68 75 -37 75 C-36.443125 73.1128125 -36.443125 73.1128125 -35.875 71.1875 C-34.30684114 66.47569558 -32.0977331 62.37467526 -29.66015625 58.0625 C-27.85333203 54.72944073 -26.2566594 51.32354858 -24.6875 47.875 C-21.81764508 41.60115819 -18.6796777 35.5078209 -15.41796875 29.4296875 C-12.41308061 23.81987926 -9.54030246 18.15353488 -6.73852539 12.43969727 C-4.64501942 8.19510691 -2.38169368 4.09041431 0 0 Z " fill="#041414" transform="translate(487,35)"/>
<path d="M0 0 C0.17015625 0.53367188 0.3403125 1.06734375 0.515625 1.6171875 C2.1524909 6.64967945 3.97224674 11.568242 5.96875 16.46875 C6.97977271 18.9503512 7.95866973 21.44306156 8.9375 23.9375 C10.26410881 27.27194917 11.70562584 30.51146288 13.25 33.75 C16.28875517 40.31521179 18.617125 47.1294951 21.04882812 53.93554688 C23.1051953 59.6520135 25.30466299 65.21430888 27.91796875 70.703125 C32.35896651 80.13022493 35.73458069 90.11704953 39 100 C26.16155974 100.20154537 13.36661773 100.25584792 0.5625 99.1875 C-0.33992432 99.11740723 -1.24234863 99.04731445 -2.17211914 98.97509766 C-7.84492939 98.44873819 -13.11938401 97.2989735 -18.58666992 95.69995117 C-20.66199633 95.09803303 -22.76721551 94.60095134 -24.875 94.125 C-36.61293322 91.14850978 -48.55100995 86.27723508 -56.1875 76.4375 C-59.69657573 69.95723606 -59.06653895 61.3787717 -57.37109375 54.41796875 C-54.78217187 47.97468784 -50.22444631 42.44557532 -46 37 C-45.29875 36.06671875 -44.5975 35.1334375 -43.875 34.171875 C-42.946875 33.09679687 -42.946875 33.09679687 -42 32 C-41.34 32 -40.68 32 -40 32 C-39.731875 31.360625 -39.46375 30.72125 -39.1875 30.0625 C-38 28 -38 28 -35 27 C-35 26.34 -35 25.68 -35 25 C-28.06284918 17.59741734 -10.35786449 0 0 0 Z " fill="#041414" transform="translate(539,155)"/>
<path d="M0 0 C6.6 0 13.2 0 20 0 C20 92.73 20 185.46 20 281 C13.4 281 6.8 281 0 281 C0 188.27 0 95.54 0 0 Z " fill="#FFFFFF" transform="translate(946,13)"/>
<path d="M0 0 C0 3 0 3 -1.65234375 4.99291992 C-2.78349609 6.10050659 -2.78349609 6.10050659 -3.9375 7.23046875 C-4.74960937 8.03291016 -5.56171875 8.83535156 -6.3984375 9.66210938 C-7.25695312 10.49548828 -8.11546875 11.32886719 -9 12.1875 C-10.28777344 13.4549707 -10.28777344 13.4549707 -11.6015625 14.74804688 C-13.7278365 16.83888298 -15.86078464 18.92241983 -18 21 C-18.66 20.67 -19.32 20.34 -20 20 C-19.04882866 18.8274869 -18.08882991 17.66212985 -17.125 16.5 C-16.59132813 15.8503125 -16.05765625 15.200625 -15.5078125 14.53125 C-14.76144531 13.77328125 -14.76144531 13.77328125 -14 13 C-13.34 13 -12.68 13 -12 13 C-11.731875 12.360625 -11.46375 11.72125 -11.1875 11.0625 C-10 9 -10 9 -7 8 C-7 7.34 -7 6.68 -7 6 C-5.46875 4.4921875 -5.46875 4.4921875 -3.5 2.875 C-2.8503125 2.33617187 -2.200625 1.79734375 -1.53125 1.2421875 C-1.0259375 0.83226562 -0.520625 0.42234375 0 0 Z " fill="#313E3E" transform="translate(511,174)"/>
</svg>
